<?xml version="1.0" encoding="UTF-8"?>
<svg width="117px" height="22px" viewBox="0 0 117 22" version="1.1" xmlns="http://www.w3.org/2000/svg" xmlns:xlink="http://www.w3.org/1999/xlink">
    <title>lbank-logo</title>
    <g id="页面-1" stroke="none" stroke-width="1" fill="none" fill-rule="evenodd">
        <g id="lbank-logo" fill="#F8E19A" fill-rule="nonzero">
            <g id="XMLID_245_">
                <path d="M11,0 C4.9,0 0,4.9 0,11 C0,17.1 4.9,22 11,22 C17.1,22 22,17.1 22,11 C21.9,4.9 17,0 11,0 Z M12,12.8 C12.3,13.1 12.5,13.4 12.5,13.9 C12.5,14.7 11.8,15.4 11,15.4 C10.6,15.4 10.2,15.2 9.9,14.9 C9.4,14.5 8.8,14.2 8,14.2 C7.2,14.2 6.6,14.5 6.1,14.9 C6.1,14.9 6,15 6,15 C5.7,15.2 5.4,15.4 5,15.4 C4.6,15.4 4.3,15.3 4,15 C3.9,14.9 3.9,14.9 3.8,14.8 C3.8,14.8 3.8,14.8 3.8,14.7 C3.8,14.7 3.7,14.6 3.7,14.6 C3.7,14.5 3.6,14.4 3.6,14.3 C3.6,14.2 3.5,14 3.5,13.9 L3.5,13.9 C3.5,13.7 3.5,13.6 3.6,13.5 C3.6,13.4 3.7,13.3 3.7,13.2 C3.7,13.2 3.7,13.1 3.8,13.1 C3.8,13.1 3.8,13.1 3.8,13 C4,13 4,13 4,12.9 C4,12.9 4.1,12.8 4.1,12.8 L4.1,12.8 C4.5,12.3 4.8,11.7 4.8,11 C4.8,10.3 4.6,9.7 4.1,9.2 C3.9,8.9 3.7,8.5 3.7,8 C3.7,7.2 4.4,6.5 5.2,6.5 C6,6.5 6.6,7.2 6.6,8 C6.6,8.4 6.4,8.8 6.1,9.1 C5.7,9.6 5.4,10.3 5.4,11 C5.4,11.7 5.7,12.4 6.1,12.9 C6.1,12.9 6.2,13 6.2,13 C6.2,13 6.2,13 6.2,13 C6.7,13.4 7.3,13.7 8,13.7 C8.7,13.7 9.3,13.5 9.8,13 C9.8,12.9 9.9,12.9 10,12.8 L10,12.8 C10.4,12.3 10.7,11.7 10.7,11 C10.7,10.3 10.5,9.7 10,9.2 C9.7,8.9 9.5,8.5 9.5,8 C9.5,7.2 10.2,6.5 11,6.5 C11.8,6.5 12.5,7.2 12.5,8 C12.5,8.4 12.3,8.8 12,9.1 C11.6,9.6 11.3,10.2 11.3,11 C11.3,11.7 11.5,12.3 12,12.8 Z M13.9,12.4 C13.1,12.4 12.4,11.7 12.4,10.9 C12.4,10.1 13.1,9.4 13.9,9.4 C14.7,9.4 15.4,10.1 15.4,10.9 C15.4,11.8 14.7,12.4 13.9,12.4 Z M17.8,12.8 C17.9,12.9 17.9,12.9 17.8,12.8 C17.9,13 18,13 18,13 C18,13 18,13 18,13.1 C18,13.1 18.1,13.2 18.1,13.2 C18.1,13.3 18.2,13.4 18.2,13.5 C18.2,13.6 18.3,13.8 18.3,13.9 L18.3,13.9 C18.3,14.1 18.3,14.2 18.2,14.3 C18.2,14.4 18.1,14.5 18.1,14.6 C18.1,14.6 18.1,14.7 18,14.7 C18,14.7 18,14.7 18,14.8 C17.9,14.9 17.9,14.9 17.8,15 C17.5,15.2 17.2,15.4 16.8,15.4 C16.4,15.4 16.1,15.3 15.8,15 C15.7,14.9 15.7,14.9 15.6,14.8 C15.6,14.8 15.6,14.8 15.6,14.7 C15.6,14.7 15.5,14.6 15.5,14.6 C15.5,14.5 15.4,14.4 15.4,14.3 C15.4,14.2 15.3,14 15.3,13.9 L15.3,13.9 C15.3,13.7 15.3,13.6 15.4,13.5 C15.4,13.4 15.5,13.3 15.5,13.2 C15.5,13.2 15.5,13.1 15.6,13.1 C15.6,13.1 15.6,13.1 15.6,13 C15.6,13 15.7,12.9 15.7,12.9 C15.7,12.9 15.8,12.8 15.8,12.8 C16.2,12.3 16.5,11.7 16.5,11 C16.5,10.3 16.3,9.7 15.8,9.2 C15.5,8.9 15.3,8.5 15.3,8.1 C15.3,7.3 16,6.6 16.8,6.6 C17.6,6.6 18.3,7.3 18.3,8.1 C18.3,8.5 18.1,8.9 17.8,9.2 C17.4,9.7 17.1,10.3 17.1,11.1 C17.1,11.7 17.4,12.3 17.8,12.8 Z" id="XMLID_280_"></path>
                <polygon id="XMLID_278_" points="31.5 19.2 31.5 2.7 35.7 2.7 35.7 15.9 43.1 15.9 43.1 19.2"></polygon>
                <polygon id="XMLID_277_" points="116.4 19.2 108.2 11 116.4 2.8 110.4 2.8 105.2 8 105.2 2.7 101 2.7 101 19.2 105.2 19.2 105.2 14 110.4 19.2"></polygon>
                <polygon id="XMLID_272_" points="68.5 16 67.5 19.2 63.1 19.2 68.8 2.7 74.4 2.7 80.1 19.2 75.7 19.2 74.7 16 73.7 12.9 71.6 6 69.4 12.9"></polygon>
                <polygon id="XMLID_270_" points="86.9 8.4 86.9 19.2 82.9 19.2 82.9 2.7 88.1 2.7 94.3 14 94.3 2.7 98.3 2.7 98.3 19.2 93.1 19.2"></polygon>
                <path d="M60,12.8 C59.8,12.3 59.5,11.9 59.2,11.5 C58.9,11.2 58.5,10.9 58,10.7 C57.6,10.5 57.1,10.4 56.7,10.3 C57.1,10.2 57.5,10.1 57.9,9.9 C58.3,9.7 58.6,9.5 58.9,9.2 C59.2,8.9 59.4,8.6 59.5,8.1 C59.7,7.7 59.7,7.2 59.7,6.7 C59.7,6.2 59.6,5.7 59.5,5.2 C59.3,4.7 59.1,4.3 58.6,3.9 C58.2,3.5 57.7,3.2 57,3 C56.3,2.8 55.5,2.7 54.5,2.7 L50,2.7 L47.7,2.7 L45.8,2.7 L45.8,19.2 L47.7,19.2 L50,19.2 L55.1,19.2 C56.8,19.2 58,18.8 58.9,18 C59.8,17.2 60.2,16.1 60.2,14.7 C60.3,14 60.2,13.4 60,12.8 Z M50.1,5.4 L54.5,5.4 C54.9,5.4 55.2,5.5 55.5,5.6 C55.8,5.7 56,5.8 56.2,6 C56.4,6.2 56.5,6.4 56.6,6.6 C56.7,6.8 56.7,7 56.7,7.3 C56.7,7.8 56.5,8.3 56.2,8.6 C55.9,9 55.3,9.1 54.5,9.1 L50.1,9.1 L50.1,5.4 Z M56.7,15.7 C56.4,16.1 55.8,16.2 55,16.2 L50.1,16.2 L50.1,12.5 L55,12.5 C55.4,12.5 55.7,12.6 56,12.7 C56.3,12.8 56.5,12.9 56.7,13.1 C56.9,13.3 57,13.5 57.1,13.7 C57.2,13.9 57.2,14.1 57.2,14.4 C57.2,14.9 57.1,15.4 56.7,15.7 Z" id="XMLID_247_"></path>
            </g>
        </g>
    </g>
</svg>